# Blender v2.79 (sub 0) OBJ File: ''
# www.blender.org
mtllib mesh3.mtl
o Cylinder.001
v -1.400000 1.400000 -1.500000
v -1.400000 1.400000 1.500000
v -1.204910 1.380785 -1.500000
v -1.204910 1.380785 1.500000
v -1.017317 1.323880 -1.500000
v -1.017317 1.323879 1.500000
v -0.844430 1.231470 -1.500000
v -0.844430 1.231470 1.500000
v -0.692893 1.107107 -1.500000
v -0.692893 1.107107 1.500000
v -0.568530 0.955570 -1.500000
v -0.568530 0.955570 1.500000
v -0.476120 0.782683 -1.500000
v -0.476120 0.782683 1.500000
v -0.419215 0.595090 -1.500000
v -0.419215 0.595090 1.500000
v -0.400000 0.400000 -1.500000
v -0.400000 0.400000 1.500000
v -0.419215 0.204910 -1.500000
v -0.419215 0.204910 1.500000
v -0.476120 0.017317 -1.500000
v -0.476120 0.017317 1.500000
v -0.568530 -0.155570 -1.500000
v -0.568530 -0.155570 1.500000
v -0.692893 -0.307107 -1.500000
v -0.692893 -0.307107 1.500000
v -0.844430 -0.431470 -1.500000
v -0.844430 -0.431470 1.500000
v -1.017317 -0.523880 -1.500000
v -1.017317 -0.523880 1.500000
v -1.204910 -0.580785 -1.500000
v -1.204910 -0.580785 1.500000
v -1.400000 -0.600000 -1.500000
v -1.400000 -0.600000 1.500000
v -1.595091 -0.580785 -1.500000
v -1.595091 -0.580785 1.500000
v -1.782684 -0.523879 -1.500000
v -1.782684 -0.523879 1.500000
v -1.955571 -0.431469 -1.500000
v -1.955571 -0.431469 1.500000
v -2.107107 -0.307106 -1.500000
v -2.107107 -0.307106 1.500000
v -2.231470 -0.155570 -1.500000
v -2.231470 -0.155570 1.500000
v -2.323880 0.017317 -1.500000
v -2.323880 0.017317 1.500000
v -2.380785 0.204911 -1.500000
v -2.380785 0.204910 1.500000
v -2.400000 0.400001 -1.500000
v -2.400000 0.400001 1.500000
v -2.380785 0.595091 -1.500000
v -2.380785 0.595091 1.500000
v -2.323879 0.782685 -1.500000
v -2.323879 0.782684 1.500000
v -2.231469 0.955571 -1.500000
v -2.231469 0.955571 1.500000
v -2.107106 1.107108 -1.500000
v -2.107106 1.107108 1.500000
v -1.955569 1.231470 -1.500000
v -1.955569 1.231470 1.500000
v -1.782682 1.323880 -1.500000
v -1.782682 1.323880 1.500000
v -1.595089 1.380786 -1.500000
v -1.595089 1.380785 1.500000
vn 0.0980 0.9952 0.0000
vn 0.2903 0.9569 0.0000
vn 0.4714 0.8819 0.0000
vn 0.6344 0.7730 0.0000
vn 0.7730 0.6344 0.0000
vn 0.8819 0.4714 0.0000
vn 0.9569 0.2903 0.0000
vn 0.9952 0.0980 0.0000
vn 0.9952 -0.0980 -0.0000
vn 0.9569 -0.2903 -0.0000
vn 0.8819 -0.4714 -0.0000
vn 0.7730 -0.6344 -0.0000
vn 0.6344 -0.7730 -0.0000
vn 0.4714 -0.8819 -0.0000
vn 0.2903 -0.9569 -0.0000
vn 0.0980 -0.9952 -0.0000
vn -0.0980 -0.9952 -0.0000
vn -0.2903 -0.9569 -0.0000
vn -0.4714 -0.8819 -0.0000
vn -0.6344 -0.7730 -0.0000
vn -0.7730 -0.6344 -0.0000
vn -0.8819 -0.4714 -0.0000
vn -0.9569 -0.2903 -0.0000
vn -0.9952 -0.0980 -0.0000
vn -0.9952 0.0980 0.0000
vn -0.9569 0.2903 0.0000
vn -0.8819 0.4714 0.0000
vn -0.7730 0.6344 0.0000
vn -0.6344 0.7730 0.0000
vn -0.4714 0.8819 0.0000
vn -0.0000 0.0000 1.0000
vn -0.2903 0.9569 0.0000
vn -0.0980 0.9952 0.0000
vn 0.0000 0.0000 -1.0000
usemtl None
s off
f 1//1 2//1 4//1 3//1
f 3//2 4//2 6//2 5//2
f 5//3 6//3 8//3 7//3
f 7//4 8//4 10//4 9//4
f 9//5 10//5 12//5 11//5
f 11//6 12//6 14//6 13//6
f 13//7 14//7 16//7 15//7
f 15//8 16//8 18//8 17//8
f 17//9 18//9 20//9 19//9
f 19//10 20//10 22//10 21//10
f 21//11 22//11 24//11 23//11
f 23//12 24//12 26//12 25//12
f 25//13 26//13 28//13 27//13
f 27//14 28//14 30//14 29//14
f 29//15 30//15 32//15 31//15
f 31//16 32//16 34//16 33//16
f 33//17 34//17 36//17 35//17
f 35//18 36//18 38//18 37//18
f 37//19 38//19 40//19 39//19
f 39//20 40//20 42//20 41//20
f 41//21 42//21 44//21 43//21
f 43//22 44//22 46//22 45//22
f 45//23 46//23 48//23 47//23
f 47//24 48//24 50//24 49//24
f 49//25 50//25 52//25 51//25
f 51//26 52//26 54//26 53//26
f 53//27 54//27 56//27 55//27
f 55//28 56//28 58//28 57//28
f 57//29 58//29 60//29 59//29
f 59//30 60//30 62//30 61//30
f 4//31 2//31 64//31 62//31 60//31 58//31 56//31 54//31 52//31 50//31 48//31 46//31 44//31 42//31 40//31 38//31 36//31 34//31 32//31 30//31 28//31 26//31 24//31 22//31 20//31 18//31 16//31 14//31 12//31 10//31 8//31 6//31
f 61//32 62//32 64//32 63//32
f 63//33 64//33 2//33 1//33
f 1//34 3//34 5//34 7//34 9//34 11//34 13//34 15//34 17//34 19//34 21//34 23//34 25//34 27//34 29//34 31//34 33//34 35//34 37//34 39//34 41//34 43//34 45//34 47//34 49//34 51//34 53//34 55//34 57//34 59//34 61//34 63//34
o Cylinder
v -0.800000 0.000000 1.250000
v -0.800000 -0.000000 -1.250000
v -0.784628 -0.156072 1.250000
v -0.784628 -0.156072 -1.250000
v -0.739104 -0.306147 1.250000
v -0.739104 -0.306147 -1.250000
v -0.665176 -0.444456 1.250000
v -0.665176 -0.444456 -1.250000
v -0.565685 -0.565685 1.250000
v -0.565686 -0.565686 -1.250000
v -0.444456 -0.665176 1.250000
v -0.444456 -0.665176 -1.250000
v -0.306147 -0.739104 1.250000
v -0.306147 -0.739104 -1.250000
v -0.156072 -0.784628 1.250000
v -0.156072 -0.784628 -1.250000
v -0.000000 -0.800000 1.250000
v -0.000000 -0.800000 -1.250000
v 0.156072 -0.784628 1.250000
v 0.156072 -0.784628 -1.250000
v 0.306147 -0.739104 1.250000
v 0.306147 -0.739104 -1.250000
v 0.444456 -0.665176 1.250000
v 0.444456 -0.665176 -1.250000
v 0.565686 -0.565685 1.250000
v 0.565685 -0.565686 -1.250000
v 0.665176 -0.444456 1.250000
v 0.665176 -0.444456 -1.250000
v 0.739104 -0.306147 1.250000
v 0.739104 -0.306147 -1.250000
v 0.784628 -0.156072 1.250000
v 0.784628 -0.156072 -1.250000
v 0.800000 0.000000 1.250000
v 0.800000 0.000000 -1.250000
v 0.784628 0.156073 1.250000
v 0.784628 0.156073 -1.250000
v 0.739104 0.306147 1.250000
v 0.739103 0.306147 -1.250000
v 0.665175 0.444457 1.250000
v 0.665175 0.444457 -1.250000
v 0.565685 0.565686 1.250000
v 0.565685 0.565686 -1.250000
v 0.444456 0.665176 1.250000
v 0.444456 0.665176 -1.250000
v 0.306146 0.739104 1.250000
v 0.306146 0.739104 -1.250000
v 0.156072 0.784628 1.250000
v 0.156072 0.784628 -1.250000
v -0.000001 0.800000 1.250000
v -0.000001 0.800000 -1.250000
v -0.156073 0.784628 1.250000
v -0.156073 0.784628 -1.250000
v -0.306148 0.739103 1.250000
v -0.306148 0.739103 -1.250000
v -0.444457 0.665175 1.250000
v -0.444457 0.665175 -1.250000
v -0.565686 0.565685 1.250000
v -0.565686 0.565685 -1.250000
v -0.665176 0.444455 1.250000
v -0.665176 0.444455 -1.250000
v -0.739104 0.306146 1.250000
v -0.739104 0.306146 -1.250000
v -0.784628 0.156071 1.250000
v -0.784629 0.156071 -1.250000
vn -0.9952 -0.0980 0.0000
vn -0.9569 -0.2903 0.0000
vn -0.8819 -0.4714 0.0000
vn -0.7730 -0.6344 0.0000
vn -0.6344 -0.7730 0.0000
vn -0.4714 -0.8819 0.0000
vn -0.2903 -0.9569 0.0000
vn -0.0980 -0.9952 0.0000
vn 0.0980 -0.9952 0.0000
vn 0.2903 -0.9569 0.0000
vn 0.4714 -0.8819 0.0000
vn 0.6344 -0.7730 0.0000
vn 0.7730 -0.6344 -0.0000
vn 0.8819 -0.4714 -0.0000
vn 0.9569 -0.2903 -0.0000
vn 0.9952 -0.0980 -0.0000
vn 0.9952 0.0980 -0.0000
vn 0.9569 0.2903 -0.0000
vn 0.8819 0.4714 -0.0000
vn 0.7730 0.6344 -0.0000
vn 0.6344 0.7730 -0.0000
vn 0.4714 0.8819 -0.0000
vn 0.2903 0.9569 -0.0000
vn 0.0980 0.9952 -0.0000
vn -0.0980 0.9952 -0.0000
vn -0.2903 0.9569 -0.0000
vn -0.4714 0.8819 -0.0000
vn -0.6344 0.7730 -0.0000
vn -0.7730 0.6344 0.0000
vn -0.8819 0.4714 0.0000
vn -0.0000 0.0000 -1.0000
vn -0.9569 0.2903 0.0000
vn -0.9952 0.0980 0.0000
vn 0.0000 0.0000 1.0000
usemtl None
s off
f 65//35 66//35 68//35 67//35
f 67//36 68//36 70//36 69//36
f 69//37 70//37 72//37 71//37
f 71//38 72//38 74//38 73//38
f 73//39 74//39 76//39 75//39
f 75//40 76//40 78//40 77//40
f 77//41 78//41 80//41 79//41
f 79//42 80//42 82//42 81//42
f 81//43 82//43 84//43 83//43
f 83//44 84//44 86//44 85//44
f 85//45 86//45 88//45 87//45
f 87//46 88//46 90//46 89//46
f 89//47 90//47 92//47 91//47
f 91//48 92//48 94//48 93//48
f 93//49 94//49 96//49 95//49
f 95//50 96//50 98//50 97//50
f 97//51 98//51 100//51 99//51
f 99//52 100//52 102//52 101//52
f 101//53 102//53 104//53 103//53
f 103//54 104//54 106//54 105//54
f 105//55 106//55 108//55 107//55
f 107//56 108//56 110//56 109//56
f 109//57 110//57 112//57 111//57
f 111//58 112//58 114//58 113//58
f 113//59 114//59 116//59 115//59
f 115//60 116//60 118//60 117//60
f 117//61 118//61 120//61 119//61
f 119//62 120//62 122//62 121//62
f 121//63 122//63 124//63 123//63
f 123//64 124//64 126//64 125//64
f 68//65 66//65 128//65 126//65 124//65 122//65 120//65 118//65 116//65 114//65 112//65 110//65 108//65 106//65 104//65 102//65 100//65 98//65 96//65 94//65 92//65 90//65 88//65 86//65 84//65 82//65 80//65 78//65 76//65 74//65 72//65 70//65
f 125//66 126//66 128//66 127//66
f 127//67 128//67 66//67 65//67
f 65//68 67//68 69//68 71//68 73//68 75//68 77//68 79//68 81//68 83//68 85//68 87//68 89//68 91//68 93//68 95//68 97//68 99//68 101//68 103//68 105//68 107//68 109//68 111//68 113//68 115//68 117//68 119//68 121//68 123//68 125//68 127//68
